<mxfile host="Electron" modified="2023-10-30T04:05:10.812Z" agent="Mozilla/5.0 (Windows NT 10.0; Win64; x64) AppleWebKit/537.36 (KHTML, like Gecko) draw.io/21.5.1 Chrome/112.0.5615.204 Electron/24.6.0 Safari/537.36" etag="lnMTNhN9euuUzCAdf3vl" version="21.5.1" type="device">
  <diagram name="Page-1" id="n6BaO5AnEmsEq_pYDeHM">
    <mxGraphModel dx="1830" dy="553" grid="1" gridSize="10" guides="1" tooltips="1" connect="1" arrows="1" fold="1" page="1" pageScale="1" pageWidth="827" pageHeight="1169" math="0" shadow="0">
      <root>
        <mxCell id="0" />
        <mxCell id="1" parent="0" />
        <mxCell id="08r1PG2KDx-c3hLKT1JD-6" value="Restoration" style="ellipse;whiteSpace=wrap;html=1;aspect=fixed;" parent="1" vertex="1">
          <mxGeometry x="-440" y="200" width="120" height="120" as="geometry" />
        </mxCell>
        <mxCell id="08r1PG2KDx-c3hLKT1JD-1" value="Solidarity" style="ellipse;whiteSpace=wrap;html=1;aspect=fixed;fillColor=#dae8fc;strokeColor=#6c8ebf;" parent="1" vertex="1">
          <mxGeometry x="40" y="120" width="200" height="200" as="geometry" />
        </mxCell>
        <mxCell id="08r1PG2KDx-c3hLKT1JD-4" value="Eleanor Maple" style="rounded=1;whiteSpace=wrap;html=1;fillColor=#dae8fc;strokeColor=#6c8ebf;" parent="1" vertex="1">
          <mxGeometry x="100" y="100" width="80" height="50" as="geometry" />
        </mxCell>
        <mxCell id="7k1WBrMQCxbtkjWPwt7n-1" value="Jasper Baura" style="rounded=1;whiteSpace=wrap;html=1;" vertex="1" parent="1">
          <mxGeometry x="-440" y="160" width="120" height="60" as="geometry" />
        </mxCell>
      </root>
    </mxGraphModel>
  </diagram>
</mxfile>
